<?xml version="1.0" encoding="utf-8"?>
<!-- Generator: Adobe Illustrator 15.0.0, SVG Export Plug-In . SVG Version: 6.00 Build 0)  -->
<!DOCTYPE svg PUBLIC "-//W3C//DTD SVG 1.1//EN" "http://www.w3.org/Graphics/SVG/1.1/DTD/svg11.dtd">
<svg version="1.1" xmlns="http://www.w3.org/2000/svg" xmlns:xlink="http://www.w3.org/1999/xlink" x="0px" y="0px" width="613px"
	 height="372px" viewBox="0 0 613 372" enable-background="new 0 0 613 372" xml:space="preserve">
<g id="Layer_1">
	<circle fill="#42210B" cx="304.5" cy="186" r="180"/>
	<path fill="none" d="M319.5,13C465,28.5,546.5,216.5,406,327"/>
	<path fill="none" stroke="#000000" stroke-width="8" stroke-miterlimit="10" d="M19.5,257.334C36.54,228,59.383,229.666,76.176,253
		c16.792,23.333,52.231,19,54.824-16"/>
	<path fill="none" stroke="#000000" stroke-width="8" stroke-miterlimit="10" d="M481.5,172.334
		C498.54,143,521.383,144.666,538.176,168c16.793,23.333,52.231,19,54.824-16"/>
	<circle stroke="#000000" stroke-miterlimit="10" cx="16" cy="265.5" r="15.5"/>
	<circle stroke="#000000" stroke-miterlimit="10" cx="597" cy="142.5" r="15.5"/>
</g>
<g id="Layer_2">
	<path fill="#603813" d="M242.5,20.333c215.334-36,265.334,210,181.334,299.333c124-111.333,44.666-360-185.334-302"/>
	<path fill="#2E140B" d="M179.833,59.667c-108,183.333,48,300,160,301.333c-106,12-186.881-51.311-200-97.333
		C99.167,121,179.833,59.667,179.833,59.667z"/>
	<path fill="#2E140B" d="M197.5,142.5c-18,32.5-16.232,95.758,20,131.5c37,36.5,75.5,47,122.667,33.333
		C248,318.5,177.5,233.166,197.5,142.5z"/>
	<path fill="#603813" d="M402.5,120.5c-37.38-52.44-140.5-75-197,6.5c8.2-6.65,16.29-12.28,24.23-17
		c5.27,10.76,9.81,20.95,13.76,30.67c-9.9,3.03-18.17,6.62-23.99,10.83c0,0,9.26-2.66,26-5.75c9.11,23.28,14.79,43.82,18.96,62.93
		c-9.89,3.03-18.15,6.61-23.96,10.82c0,0,8.92-2.57,25.07-5.58c4.16,20,6.82,38.51,10.26,57.08c0,0-0.66-24.3-4.21-58.17
		c10.93-1.9,24.5-3.87,40.33-5.42c4.57,34.1,5.64,59.45,5.88,58.26c1.31-6.53,2.56-28.79,1.38-58.94
		c11.06-0.96,23.1-1.7,36.021-2.08c1.52,32.18-0.061,55.68-0.061,55.68c4.01-14.28,6.67-34.48,8.1-55.86
		c13.98-0.24,28.9-0.03,44.631,0.78c-1.301,28.9-15.42,62.06-53.9,97.25C439.5,262,438.5,171,402.5,120.5z M250.69,99.47
		c11.01-4.54,21.64-7.37,31.8-8.8c5.57,12.15,10.26,25.71,14.21,39.75c-12.91,1.53-25.44,3.51-36.77,5.99
		C257.3,123.92,254.25,111.46,250.69,99.47z M270.97,206.82c-2.16-19.39-5.26-41.47-9.67-63.72c10.76-1.64,23.38-3.22,37.63-4.43
		c5.31,20.49,9.13,41.62,11.89,60.62C296.48,201.19,282.8,203.66,270.97,206.82z M311.48,128.86c-2.11-12.95-4.73-26.13-7.94-39.23
		c11.94,0.52,22.98,2.93,32.92,6.61c3.51,9.73,6.41,19.96,8.79,30.35C334.29,127.06,322.86,127.81,311.48,128.86z M318.83,198.28
		c-0.95-18.3-2.79-39.03-5.99-60.64c10.76-0.68,22.29-1.12,34.5-1.23c3.99,20.16,6.19,40.53,7.36,58.78
		C342.86,195.89,330.69,196.9,318.83,198.28z M362.92,126.03c-0.61-6.58-1.38-12.4-2.32-17.15c7.431,5.22,13.67,11.08,18.521,17.02
		C374.01,125.87,368.58,125.91,362.92,126.03z M363.83,194.69c0.99-20.29,0.91-41-0.12-58.22c7.68,0.12,15.59,0.38,23.72,0.81
		c10.07,15.21,18.82,34.5,20.34,56.71C395.19,193.75,379.98,193.93,363.83,194.69z"/>
</g>
<g id="Layer_1_copy">
	<circle fill="none" stroke="#DE8F45" stroke-width="12" stroke-miterlimit="10" cx="304.5" cy="186" r="180"/>
</g>
<g id="Layer_4">
	
		<ellipse transform="matrix(0.9638 -0.2666 0.2666 0.9638 -45.7059 52.0551)" fill="#FFFFFF" cx="168.833" cy="194.333" rx="10.333" ry="18"/>
	
		<ellipse transform="matrix(0.9999 -0.0142 0.0142 0.9999 -2.0733 6.1504)" fill="#FFFFFF" cx="432.833" cy="149.333" rx="10.334" ry="18"/>
	<g id="XMLID_1_">
		<g>
			<path fill="#721717" d="M387.07,157.58c2.54,37.38-24.801,68.55-62.811,79.439l-0.43-2.02c-1.42-6.56-5.56-11.89-11.35-15.98
				l0.02-0.02c20.67-9.33,46.67-39.33,45.33-60l-0.021-0.53c11.23-0.49,20.921-0.8,28.021-0.8L387.07,157.58z"/>
			<path fill="#FFFFFF" d="M387.07,157.58l-1.24,0.09c-7.1,0-16.79,0.31-28.021,0.8c-35.14,1.55-85.459,4.85-119.31,5.86l-0.95-0.09
				c2.09-10.55,6.64-21.91,14.28-33.91c26.67,24.67,108,26,126.67-3.33C383.67,137.45,386.41,147.73,387.07,157.58z"/>
			<path fill="#AF3131" d="M357.83,159c1.34,20.67-24.66,50.67-45.33,60l-0.02,0.02c-16-11.31-44.53-13.19-62.65-5.35l-1.66,1.19
				c-9.62-13.01-14.66-30.31-10.62-50.62l0.95,0.09c33.85-1.01,84.17-4.31,119.31-5.86L357.83,159z"/>
			<path fill="#F97D7D" d="M323.83,235l0.43,2.02c-7.55,2.171-15.52,3.53-23.76,3.98c-18.41,1.01-39.47-8.72-52.33-26.14l1.66-1.19
				c18.12-7.84,46.65-5.96,62.65,5.35C318.27,223.11,322.41,228.44,323.83,235z"/>
		</g>
		<g>
			<path fill="none" stroke="#000000" stroke-width="4" stroke-miterlimit="10" d="M237.55,164.24
				c2.09-10.55,6.64-21.91,14.28-33.91c26.67,24.67,108,26,126.67-3.33c5.17,10.45,7.91,20.73,8.57,30.58
				c2.54,37.38-24.801,68.55-62.811,79.439c-7.55,2.171-15.52,3.53-23.76,3.98c-18.41,1.01-39.47-8.72-52.33-26.14
				C238.55,201.85,233.51,184.55,237.55,164.24z"/>
			<path fill="none" stroke="#000000" stroke-width="4" stroke-miterlimit="10" d="M238.5,164.33c33.85-1.01,84.17-4.31,119.31-5.86
				c11.23-0.49,20.921-0.8,28.021-0.8"/>
		</g>
	</g>
</g>
</svg>
