<?xml version="1.0" encoding="utf-8"?>
<!-- Generator: Adobe Illustrator 15.0.0, SVG Export Plug-In . SVG Version: 6.00 Build 0)  -->
<!DOCTYPE svg PUBLIC "-//W3C//DTD SVG 1.1//EN" "http://www.w3.org/Graphics/SVG/1.1/DTD/svg11.dtd">
<svg version="1.1" xmlns="http://www.w3.org/2000/svg" xmlns:xlink="http://www.w3.org/1999/xlink" x="0px" y="0px"
	 width="460.088px" height="372px" viewBox="0 0 460.088 372" enable-background="new 0 0 460.088 372" xml:space="preserve">
<g id="Layer_1">
	<circle fill="#42210B" cx="226.5" cy="186" r="180"/>
	<path fill="none" d="M241.5,13C387,28.5,468.5,216.5,328,327"/>
	<path fill="none" stroke="#000000" stroke-width="8" stroke-miterlimit="10" d="M53,237"/>
</g>
<g id="Layer_7">
</g>
<g id="Layer_6_copy_2">
	<path stroke="#000000" stroke-miterlimit="10" d="M55.5,125l-4,4l-27.27-23.37c-2.38,1.5-5.21,2.37-8.23,2.37
		c-8.56,0-15.5-6.94-15.5-15.5S7.44,77,16,77s15.5,6.94,15.5,15.5c0,2.05-0.4,4.01-1.13,5.8L55.5,125z"/>
	<path stroke="#000000" stroke-miterlimit="10" d="M459.026,109.824c-2.274,8.252-10.81,13.099-19.062,10.824
		c-2.198-0.606-4.15-1.653-5.793-3.028l-39.461,18.561l-2.794-4.919l36.97-22.505c-0.464-2.306-0.412-4.75,0.255-7.17
		c2.274-8.252,10.81-13.099,19.062-10.824S461.302,101.572,459.026,109.824z"/>
</g>
<g id="Layer_2">
	<path fill="#603813" d="M164.5,20.333c215.334-36,265.334,210,181.334,299.333c124-111.333,44.666-360-185.334-302"/>
	<path fill="#2E140B" d="M101.833,59.667c-108,183.333,48,300,160,301.333c-106,12-186.881-51.311-200-97.333
		C21.167,121,101.833,59.667,101.833,59.667z"/>
	<path fill="#2E140B" d="M119.5,142.5c-18,32.5-16.232,95.758,20,131.5c37,36.5,75.5,47,122.667,33.333
		C170,318.5,99.5,233.166,119.5,142.5z"/>
	<path fill="#603813" d="M324.5,120.5c-37.38-52.44-140.5-75-197,6.5c8.2-6.65,16.29-12.28,24.23-17
		c5.27,10.76,9.81,20.95,13.76,30.67c-9.9,3.03-18.17,6.62-23.99,10.83c0,0,9.26-2.66,26-5.75c9.11,23.28,14.79,43.82,18.96,62.93
		c-9.89,3.03-18.15,6.61-23.96,10.82c0,0,8.92-2.57,25.07-5.58c4.16,20,6.82,38.51,10.26,57.08c0,0-0.66-24.3-4.21-58.17
		c10.93-1.9,24.5-3.87,40.33-5.42c4.57,34.1,5.64,59.45,5.88,58.26c1.31-6.53,2.56-28.79,1.38-58.94
		c11.06-0.96,23.1-1.7,36.021-2.08c1.52,32.18-0.061,55.68-0.061,55.68c4.01-14.28,6.67-34.48,8.1-55.86
		c13.98-0.24,28.9-0.03,44.631,0.78c-1.301,28.9-15.42,62.06-53.9,97.25C361.5,262,360.5,171,324.5,120.5z M172.69,99.47
		c11.01-4.54,21.64-7.37,31.8-8.8c5.57,12.15,10.26,25.71,14.21,39.75c-12.91,1.53-25.44,3.51-36.77,5.99
		C179.3,123.92,176.25,111.46,172.69,99.47z M192.97,206.82c-2.16-19.39-5.26-41.47-9.67-63.72c10.76-1.64,23.38-3.22,37.63-4.43
		c5.31,20.49,9.13,41.62,11.89,60.62C218.48,201.19,204.8,203.66,192.97,206.82z M233.48,128.86c-2.11-12.95-4.73-26.13-7.94-39.23
		c11.94,0.52,22.98,2.93,32.92,6.61c3.51,9.73,6.41,19.96,8.79,30.35C256.29,127.06,244.86,127.81,233.48,128.86z M240.83,198.28
		c-0.95-18.3-2.79-39.03-5.99-60.64c10.76-0.68,22.29-1.12,34.5-1.23c3.99,20.16,6.19,40.53,7.36,58.78
		C264.86,195.89,252.69,196.9,240.83,198.28z M284.92,126.03c-0.61-6.58-1.38-12.4-2.32-17.15c7.431,5.22,13.67,11.08,18.521,17.02
		C296.01,125.87,290.58,125.91,284.92,126.03z M285.83,194.69c0.99-20.29,0.91-41-0.12-58.22c7.68,0.12,15.59,0.38,23.72,0.81
		c10.07,15.21,18.82,34.5,20.34,56.71C317.19,193.75,301.98,193.93,285.83,194.69z"/>
</g>
<g id="Layer_1_copy">
	<circle fill="none" stroke="#DE8F45" stroke-width="12" stroke-miterlimit="10" cx="226.5" cy="186" r="180"/>
</g>
<g id="Layer_4_copy_3">
	
		<ellipse transform="matrix(0.9638 -0.2666 0.2666 0.9638 -25.1309 37.5842)" fill="#FFFFFF" cx="125.833" cy="111.333" rx="10.333" ry="18"/>
	
		<ellipse transform="matrix(0.9999 -0.0142 0.0142 0.9999 -1.255 3.6071)" fill="#FFFFFF" cx="253.833" cy="90.333" rx="10.334" ry="18"/>
	<g>
		<g>
			<path d="M136.424,169.313c-6.271,2.861-9.971,10.61-12.242,16.692c-2.221,5.947-3.838,15.308,1.104,20.344
				c0.593,0.605,1.501-0.023,1.345-0.783c-1.361-6.626-1.601-12.192,0.446-18.763c2.03-6.521,5.751-11.496,9.934-16.729
				C137.359,169.639,136.938,169.079,136.424,169.313L136.424,169.313z"/>
		</g>
	</g>
	<g>
		<g>
			<path d="M263.439,133.559c5.316,0.281,9.807,1.832,13.963,5.264c3.975,3.281,5.379,7.02,6.178,11.929
				c0.107,0.663,1.119,0.913,1.541,0.407c7.51-9.004-13.683-24.583-21.922-18.487C262.823,132.949,262.94,133.532,263.439,133.559
				L263.439,133.559z"/>
		</g>
	</g>
	<g id="XMLID_4_">
		<g>
			<path fill="#721717" d="M257.365,166.252l0.072,0.084c-14.876,14.468-13.266,47.02-20.392,67.699l-0.036-0.012
				c-3.016-1.358-6.152-2.752-9.457-3.846l0.276-0.841c0-8.003,6.669-43.342,8.676-48.005l-0.493-0.949
				C243.57,176.562,250.96,171.828,257.365,166.252z"/>
			<path fill="#F97D7D" d="M237.009,234.023l0.036,0.012c-3.232,9.385-8.267,16.318-17.459,18.013
				c-11.007,2.019-20.187-4.555-28.827-14.167l1.189-0.854c14.396-10.79,25.75-10.142,35.604-6.85
				C230.857,231.271,233.994,232.665,237.009,234.023z"/>
			<path fill="#AF3131" d="M236.012,180.383l0.493,0.949c-2.007,4.663-8.676,40.002-8.676,48.005l-0.276,0.841
				c-9.854-3.292-21.208-3.94-35.604,6.85l-1.189,0.854c-14.456-16.114-27.373-40.771-44.676-47.921l0.012-0.072
				c21.954,4.987,47.32,3.665,60.874,0.877C215.717,188.962,226.015,185.466,236.012,180.383z"/>
		</g>
		<g>
			<path fill="none" stroke="#000000" stroke-width="4" stroke-miterlimit="10" d="M126.46,182.955
				c5.852,3.076,12.569,5.335,19.634,6.933c21.954,4.987,47.32,3.665,60.874,0.877c8.748-1.803,19.046-5.299,29.043-10.382
				c7.558-3.821,14.948-8.555,21.353-14.131c9.361-8.123,16.631-18.036,19.298-29.56"/>
			<path fill="none" stroke="#000000" stroke-width="4" stroke-miterlimit="10" d="M146.083,189.96
				c17.303,7.149,30.221,31.807,44.676,47.921c8.64,9.612,17.82,16.186,28.827,14.167c9.192-1.694,14.227-8.628,17.459-18.013
				c7.126-20.68,5.516-53.231,20.392-67.699"/>
		</g>
	</g>
</g>
</svg>
