<?xml version="1.0" encoding="utf-8"?>
<!-- Generator: Adobe Illustrator 15.0.0, SVG Export Plug-In . SVG Version: 6.00 Build 0)  -->
<!DOCTYPE svg PUBLIC "-//W3C//DTD SVG 1.1//EN" "http://www.w3.org/Graphics/SVG/1.1/DTD/svg11.dtd">
<svg version="1.1" xmlns="http://www.w3.org/2000/svg" xmlns:xlink="http://www.w3.org/1999/xlink" x="0px" y="0px" width="449px"
	 height="372px" viewBox="0 0 449 372" enable-background="new 0 0 449 372" xml:space="preserve">
<g id="Layer_1">
	<circle fill="#42210B" cx="230.5" cy="186" r="180"/>
	<path fill="none" d="M245.5,13C391,28.5,472.5,216.5,332,327"/>
	<path fill="none" stroke="#000000" stroke-width="8" stroke-miterlimit="10" d="M57,237"/>
</g>
<g id="Layer_7">
</g>
<g id="Layer_6_copy_2">
	<path stroke="#000000" stroke-miterlimit="10" d="M55.5,145l-4,4l-27.27-23.37c-2.38,1.5-5.21,2.37-8.23,2.37
		c-8.56,0-15.5-6.94-15.5-15.5S7.44,97,16,97s15.5,6.94,15.5,15.5c0,2.05-0.4,4.01-1.13,5.8L55.5,145z"/>
	<path stroke="#000000" stroke-miterlimit="10" d="M448.5,75.5c0,8.56-6.94,15.5-15.5,15.5c-2.28,0-4.44-0.49-6.39-1.38L393.5,118
		l-4-4l29.66-31.52c-1.061-2.1-1.66-4.47-1.66-6.98c0-8.56,6.94-15.5,15.5-15.5S448.5,66.94,448.5,75.5z"/>
</g>
<g id="Layer_2">
	<path fill="#603813" d="M168.5,20.333c215.334-36,265.334,210,181.334,299.333c124-111.333,44.666-360-185.334-302"/>
	<path fill="#2E140B" d="M105.833,59.667c-108,183.333,48,300,160,301.333c-106,12-186.881-51.311-200-97.333
		C25.167,121,105.833,59.667,105.833,59.667z"/>
	<path fill="#2E140B" d="M123.5,142.5c-18,32.5-16.232,95.758,20,131.5c37,36.5,75.5,47,122.667,33.333
		C174,318.5,103.5,233.166,123.5,142.5z"/>
	<path fill="#603813" d="M328.5,120.5c-37.38-52.44-140.5-75-197,6.5c8.2-6.65,16.29-12.28,24.23-17
		c5.27,10.76,9.81,20.95,13.76,30.67c-9.9,3.03-18.17,6.62-23.99,10.83c0,0,9.26-2.66,26-5.75c9.11,23.28,14.79,43.82,18.96,62.93
		c-9.89,3.03-18.15,6.61-23.96,10.82c0,0,8.92-2.57,25.07-5.58c4.16,20,6.82,38.51,10.26,57.08c0,0-0.66-24.3-4.21-58.17
		c10.93-1.9,24.5-3.87,40.33-5.42c4.57,34.1,5.64,59.45,5.88,58.26c1.31-6.53,2.56-28.79,1.38-58.94
		c11.06-0.96,23.1-1.7,36.021-2.08c1.52,32.18-0.061,55.68-0.061,55.68c4.01-14.28,6.67-34.48,8.1-55.86
		c13.98-0.24,28.9-0.03,44.631,0.78c-1.301,28.9-15.42,62.06-53.9,97.25C365.5,262,364.5,171,328.5,120.5z M176.69,99.47
		c11.01-4.54,21.64-7.37,31.8-8.8c5.57,12.15,10.26,25.71,14.21,39.75c-12.91,1.53-25.44,3.51-36.77,5.99
		C183.3,123.92,180.25,111.46,176.69,99.47z M196.97,206.82c-2.16-19.39-5.26-41.47-9.67-63.72c10.76-1.64,23.38-3.22,37.63-4.43
		c5.31,20.49,9.13,41.62,11.89,60.62C222.48,201.19,208.8,203.66,196.97,206.82z M237.48,128.86c-2.11-12.95-4.73-26.13-7.94-39.23
		c11.94,0.52,22.98,2.93,32.92,6.61c3.51,9.73,6.41,19.96,8.79,30.35C260.29,127.06,248.86,127.81,237.48,128.86z M244.83,198.28
		c-0.95-18.3-2.79-39.03-5.99-60.64c10.76-0.68,22.29-1.12,34.5-1.23c3.99,20.16,6.19,40.53,7.36,58.78
		C268.86,195.89,256.69,196.9,244.83,198.28z M288.92,126.03c-0.61-6.58-1.38-12.4-2.32-17.15c7.431,5.22,13.67,11.08,18.521,17.02
		C300.01,125.87,294.58,125.91,288.92,126.03z M289.83,194.69c0.99-20.29,0.91-41-0.12-58.22c7.68,0.12,15.59,0.38,23.72,0.81
		c10.07,15.21,18.82,34.5,20.34,56.71C321.19,193.75,305.98,193.93,289.83,194.69z"/>
</g>
<g id="Layer_1_copy">
	<circle fill="none" stroke="#DE8F45" stroke-width="12" stroke-miterlimit="10" cx="230.5" cy="186" r="180"/>
</g>
<g id="Layer_4_copy_2">
	
		<ellipse transform="matrix(0.9638 -0.2666 0.2666 0.9638 -33.4102 40.6093)" fill="#FFFFFF" cx="132.833" cy="143.333" rx="10.333" ry="18"/>
	
		<ellipse transform="matrix(0.9999 -0.0142 0.0142 0.9999 -1.3781 4.2317)" fill="#FFFFFF" cx="297.833" cy="99.333" rx="10.334" ry="18"/>
	<g>
		<g>
			<path d="M162.424,168.313c-6.277,2.864-9.976,10.601-12.25,16.69c-2.212,5.924-3.858,15.346,1.112,20.346
				c0.598,0.602,1.496-0.021,1.345-0.783c-1.32-6.641-1.597-12.176,0.454-18.761c2.028-6.514,5.747-11.501,9.927-16.731
				C163.359,168.639,162.938,168.079,162.424,168.313L162.424,168.313z"/>
		</g>
	</g>
	<g>
		<g>
			<path d="M289.439,132.559c5.31,0.281,9.81,1.844,13.958,5.269c3.995,3.299,5.327,7.015,6.183,11.923
				c0.115,0.665,1.111,0.91,1.541,0.407c7.612-8.924-13.688-24.58-21.922-18.487C288.823,131.949,288.94,132.532,289.439,132.559
				L289.439,132.559z"/>
		</g>
	</g>
	<g id="XMLID_3_">
		<g>
			<path fill="#AF3131" d="M283.365,165.252l0.072,0.084c-14.876,14.468-13.266,47.02-20.392,67.699l-0.036-0.012
				c-12.016-5.407-25.834-11.416-45.061,3.004l-1.189,0.854c-14.456-16.114-27.373-40.771-44.676-47.921l0.012-0.072
				c21.954,4.987,47.32,3.665,60.874,0.877C248.35,186.604,268.489,178.181,283.365,165.252z"/>
			<path fill="#F97D7D" d="M263.009,233.023l0.036,0.012c-3.232,9.385-8.267,16.318-17.459,18.013
				c-11.007,2.019-20.187-4.555-28.827-14.167l1.189-0.854C237.175,221.608,250.993,227.616,263.009,233.023z"/>
		</g>
		<g>
			<path fill="none" stroke="#000000" stroke-width="4" stroke-miterlimit="10" d="M152.46,181.955
				c5.852,3.076,12.569,5.335,19.634,6.933c21.954,4.987,47.32,3.665,60.874,0.877c15.381-3.161,35.52-11.584,50.396-24.513
				c9.36-8.123,16.63-18.036,19.298-29.56"/>
			<path fill="none" stroke="#000000" stroke-width="4" stroke-miterlimit="10" d="M172.083,188.96
				c17.303,7.149,30.221,31.807,44.676,47.921c8.64,9.612,17.82,16.186,28.827,14.167c9.192-1.694,14.227-8.628,17.459-18.013
				c7.126-20.68,5.516-53.231,20.392-67.699"/>
		</g>
	</g>
</g>
</svg>
