<?xml version="1.0" encoding="UTF-8" standalone="no"?>
<!-- Created with Inkscape (http://www.inkscape.org/) -->

<svg
   xmlns:dc="http://purl.org/dc/elements/1.1/"
   xmlns:cc="http://creativecommons.org/ns#"
   xmlns:rdf="http://www.w3.org/1999/02/22-rdf-syntax-ns#"
   xmlns:svg="http://www.w3.org/2000/svg"
   xmlns="http://www.w3.org/2000/svg"
   xmlns:sodipodi="http://sodipodi.sourceforge.net/DTD/sodipodi-0.dtd"
   xmlns:inkscape="http://www.inkscape.org/namespaces/inkscape"
   width="115.13212mm"
   height="41.746567mm"
   viewBox="0 0 115.13212 41.746567"
   version="1.1"
   id="svg8"
   sodipodi:docname="logo_mobile.svg"
   inkscape:version="0.92.2 (5c3e80d, 2017-08-06)">
  <defs
     id="defs2" />
  <sodipodi:namedview
     id="base"
     pagecolor="#ffffff"
     bordercolor="#666666"
     borderopacity="1.0"
     inkscape:pageopacity="0.0"
     inkscape:pageshadow="2"
     inkscape:zoom="1.8101934"
     inkscape:cx="160.41333"
     inkscape:cy="43.966578"
     inkscape:document-units="mm"
     inkscape:current-layer="text4555"
     showgrid="false"
     showguides="true"
     inkscape:guide-bbox="true"
     inkscape:window-width="1920"
     inkscape:window-height="1018"
     inkscape:window-x="1272"
     inkscape:window-y="-8"
     inkscape:window-maximized="1"
     fit-margin-top="0"
     fit-margin-left="0"
     fit-margin-right="0"
     fit-margin-bottom="0">
    <sodipodi:guide
       position="9.7929226,24.70155"
       orientation="1,0"
       id="guide5404"
       inkscape:locked="false" />
    <sodipodi:guide
       position="105.82203,4.9695427"
       orientation="1,0"
       id="guide5406"
       inkscape:locked="false" />
  </sodipodi:namedview>
  <metadata
     id="metadata5">
    <rdf:RDF>
      <cc:Work
         rdf:about="">
        <dc:format>image/svg+xml</dc:format>
        <dc:type
           rdf:resource="http://purl.org/dc/dcmitype/StillImage" />
        <dc:title />
      </cc:Work>
    </rdf:RDF>
  </metadata>
  <g
     inkscape:label="Ebene 1"
     inkscape:groupmode="layer"
     id="layer1"
     transform="translate(21.037735,134.87887)">
    <text
       xml:space="preserve"
       style="font-style:normal;font-variant:normal;font-weight:normal;font-stretch:normal;font-size:10.58333302px;line-height:1.25;font-family:'Titillium Web';-inkscape-font-specification:'Titillium Web';letter-spacing:0px;word-spacing:0px;fill:#000000;fill-opacity:1;stroke:none;stroke-width:0.26458332"
       x="12.277696"
       y="26.306082"
       id="text3731"><tspan
         sodipodi:role="line"
         id="tspan3729"
         x="12.277696"
         y="35.512573"
         style="font-style:normal;font-variant:normal;font-weight:bold;font-stretch:normal;font-size:8.46666622px;font-family:'Titillium Web';-inkscape-font-specification:'Titillium Web Bold';stroke-width:0.26458332" /><tspan
         sodipodi:role="line"
         x="12.277696"
         y="48.741737"
         style="font-style:normal;font-variant:normal;font-weight:bold;font-stretch:normal;font-size:8.46666622px;font-family:'Titillium Web';-inkscape-font-specification:'Titillium Web Bold';stroke-width:0.26458332"
         id="tspan3733" /></text>
    <g
       id="g3754"
       transform="matrix(1.4043901,0,0,1.4043901,0.59858969,-1.4814221)">
      <g
         aria-label="FAMILY"
         style="font-style:normal;font-variant:normal;font-weight:normal;font-stretch:normal;font-size:20.09571457px;line-height:1.25;font-family:'Titillium Web';-inkscape-font-specification:'Titillium Web';letter-spacing:0px;word-spacing:0px;fill:#000000;fill-opacity:1;stroke:none;stroke-width:0.18839732"
         id="text4555"
         transform="translate(1.6652128,-0.1040758)">
        <path
           d="m -7.2882944,-81.320946 v -13.665086 h 8.7215401 v 2.411486 h -5.9483315 v 4.019143 h 4.86316294 v 2.411486 H -4.5150858 v 4.822971 z"
           style="font-style:normal;font-variant:normal;font-weight:bold;font-stretch:normal;font-size:20.09571457px;font-family:'Titillium Web';-inkscape-font-specification:'Titillium Web Bold';fill:#ffffff;stroke-width:0.18839732"
           id="path4585"
           inkscape:connector-curvature="0" />
        <path
           d="m 1.8103543,-81.320946 3.0746443,-13.665086 h 5.2650774 l 3.074644,13.665086 h -2.773208 l -0.5425848,-2.471773 h -4.78278 l -0.5425843,2.471773 z M 7.03524,-92.69512 5.6486357,-86.204204 h 3.737803 L 7.9998343,-92.69512 Z"
           style="font-style:normal;font-variant:normal;font-weight:bold;font-stretch:normal;font-size:20.09571457px;font-family:'Titillium Web';-inkscape-font-specification:'Titillium Web Bold';fill:#ffffff;stroke-width:0.18839732"
           id="path4587"
           inkscape:connector-curvature="0" />
        <path
           d="m 15.044637,-81.320946 v -13.665086 h 4.722493 l 2.411486,9.967475 2.411486,-9.967475 h 4.722492 v 13.665086 H 26.539386 V -91.891292 H 26.23795 l -2.67273,9.967475 h -2.773209 l -2.67273,-9.967475 h -0.301435 v 10.570346 z"
           style="font-style:normal;font-variant:normal;font-weight:bold;font-stretch:normal;font-size:20.09571457px;font-family:'Titillium Web';-inkscape-font-specification:'Titillium Web Bold';fill:#ffffff;stroke-width:0.18839732"
           id="path4589"
           inkscape:connector-curvature="0" />
        <path
           d="m 32.275144,-81.320946 v -13.665086 h 2.773209 v 13.665086 z"
           style="font-style:normal;font-variant:normal;font-weight:bold;font-stretch:normal;font-size:20.09571457px;font-family:'Titillium Web';-inkscape-font-specification:'Titillium Web Bold';fill:#ffffff;stroke-width:0.18839732"
           id="path4591"
           inkscape:connector-curvature="0" />
        <path
           d="m 45.782605,-81.320946 h -7.777042 v -13.665086 h 2.773209 v 11.213409 h 5.003833 z"
           style="font-style:normal;font-variant:normal;font-weight:bold;font-stretch:normal;font-size:20.09571457px;font-family:'Titillium Web';-inkscape-font-specification:'Titillium Web Bold';fill:#ffffff;stroke-width:0.18839732"
           id="path4593"
           inkscape:connector-curvature="0" />
        <path
           d="m 51.283178,-81.320946 h -2.773209 v -5.526321 l -4.2201,-8.138765 h 3.074645 l 2.511964,5.445939 2.511964,-5.445939 h 3.074645 l -4.179909,8.138765 z"
           style="font-style:normal;font-variant:normal;font-weight:bold;font-stretch:normal;font-size:20.09571457px;font-family:'Titillium Web';-inkscape-font-specification:'Titillium Web Bold';fill:#ffffff;stroke-width:0.18839732"
           id="path4595"
           inkscape:connector-curvature="0" />
      </g>
      <g
         aria-label="MATTERS"
         style="font-style:normal;font-variant:normal;font-weight:normal;font-stretch:normal;font-size:7.53589296px;line-height:1.25;font-family:'Titillium Web';-inkscape-font-specification:'Titillium Web';letter-spacing:0px;word-spacing:0px;fill:#ffffff;fill-opacity:1;stroke:none;stroke-width:0.18839732"
         id="text4559">
        <path
           d="m -15.406207,-65.501419 v -13.665086 h 4.722493 l 2.411486,9.967474 2.4114857,-9.967474 h 4.722493 v 13.665086 H -3.911458 v -10.570346 h -0.3014357 l -2.67273,9.967474 h -2.7732086 l -2.6727297,-9.967474 h -0.301436 v 10.570346 z"
           style="font-style:normal;font-variant:normal;font-weight:bold;font-stretch:normal;font-size:20.09571457px;font-family:'Titillium Web';-inkscape-font-specification:'Titillium Web Bold';fill:#ffffff;stroke-width:0.18839732"
           id="path4570"
           inkscape:connector-curvature="0" />
        <path
           d="M 0.67884257,-65.501419 3.7534869,-79.166505 h 5.2650772 l 3.0746439,13.665086 H 9.3199998 l -0.5425843,-2.471773 h -4.78278 l -0.5425843,2.471773 z M 5.9037284,-76.875594 4.5171241,-70.384678 H 8.254927 l -1.3866043,-6.490916 z"
           style="font-style:normal;font-variant:normal;font-weight:bold;font-stretch:normal;font-size:20.09571457px;font-family:'Titillium Web';-inkscape-font-specification:'Titillium Web Bold';fill:#ffffff;stroke-width:0.18839732"
           id="path4572"
           inkscape:connector-curvature="0" />
        <path
           d="m 11.941548,-76.714828 v -2.451677 h 10.047857 v 2.451677 h -3.617228 v 11.213409 h -2.773209 v -11.213409 z"
           style="font-style:normal;font-variant:normal;font-weight:bold;font-stretch:normal;font-size:20.09571457px;font-family:'Titillium Web';-inkscape-font-specification:'Titillium Web Bold';fill:#ffffff;stroke-width:0.18839732"
           id="path4574"
           inkscape:connector-curvature="0" />
        <path
           d="m 22.49965,-76.714828 v -2.451677 h 10.047857 v 2.451677 h -3.617229 v 11.213409 H 26.15707 v -11.213409 z"
           style="font-style:normal;font-variant:normal;font-weight:bold;font-stretch:normal;font-size:20.09571457px;font-family:'Titillium Web';-inkscape-font-specification:'Titillium Web Bold';fill:#ffffff;stroke-width:0.18839732"
           id="path4576"
           inkscape:connector-curvature="0" />
        <path
           d="M 34.283586,-65.501419 V -79.166505 H 43.1257 v 2.411486 h -6.068905 v 3.195218 h 4.863162 v 2.371295 h -4.863162 v 3.275601 H 43.1257 v 2.411486 z"
           style="font-style:normal;font-variant:normal;font-weight:bold;font-stretch:normal;font-size:20.09571457px;font-family:'Titillium Web';-inkscape-font-specification:'Titillium Web Bold';fill:#ffffff;stroke-width:0.18839732"
           id="path4578"
           inkscape:connector-curvature="0" />
        <path
           d="m 48.203638,-70.083242 v 4.581823 h -2.773209 v -13.665086 h 5.305269 q 4.822971,0 4.822971,4.50144 0,2.67273 -2.009571,3.93876 l 1.949284,5.224886 h -3.034453 l -1.587561,-4.581823 z m 2.572251,-2.371294 q 0.98469,0 1.466987,-0.602872 0.482297,-0.602871 0.482297,-1.587561 0,-0.98469 -0.522488,-1.567466 -0.502393,-0.582776 -1.466987,-0.582776 h -2.53206 v 4.340675 z"
           style="font-style:normal;font-variant:normal;font-weight:bold;font-stretch:normal;font-size:20.09571457px;font-family:'Titillium Web';-inkscape-font-specification:'Titillium Web Bold';fill:#ffffff;stroke-width:0.18839732"
           id="path4580"
           inkscape:connector-curvature="0" />
        <path
           d="m 62.072507,-76.996168 q -2.190433,0 -2.190433,1.446892 0,0.643063 0.542584,0.98469 0.542585,0.341627 2.532061,0.98469 2.009571,0.643063 2.8134,1.466987 0.803828,0.803828 0.803828,2.491868 0,2.150242 -1.306221,3.255506 -1.306222,1.105265 -3.416272,1.105265 -1.567466,0 -3.838281,-0.482298 l -0.723446,-0.14067 0.28134,-2.150241 q 2.692826,0.361723 4.119621,0.361723 2.130146,0 2.130146,-1.768423 0,-0.643063 -0.502393,-1.004786 -0.482297,-0.361723 -1.949284,-0.783733 -2.331103,-0.663158 -3.295697,-1.567465 -0.944499,-0.924403 -0.944499,-2.552156 0,-2.049763 1.245935,-3.054549 1.245934,-1.004786 3.416271,-1.004786 1.487083,0 3.777994,0.401915 l 0.723446,0.14067 -0.221053,2.190433 q -2.833495,-0.321532 -3.999047,-0.321532 z"
           style="font-style:normal;font-variant:normal;font-weight:bold;font-stretch:normal;font-size:20.09571457px;font-family:'Titillium Web';-inkscape-font-specification:'Titillium Web Bold';fill:#ffffff;stroke-width:0.18839732"
           id="path4582"
           inkscape:connector-curvature="0" />
      </g>
    </g>
  </g>
</svg>
