<?xml version="1.0" encoding="UTF-8" standalone="no"?>
<!-- Created with Inkscape (http://www.inkscape.org/) -->

<svg
   xmlns:dc="http://purl.org/dc/elements/1.1/"
   xmlns:cc="http://creativecommons.org/ns#"
   xmlns:rdf="http://www.w3.org/1999/02/22-rdf-syntax-ns#"
   xmlns:svg="http://www.w3.org/2000/svg"
   xmlns="http://www.w3.org/2000/svg"
   xmlns:sodipodi="http://sodipodi.sourceforge.net/DTD/sodipodi-0.dtd"
   xmlns:inkscape="http://www.inkscape.org/namespaces/inkscape"
   width="32.854954mm"
   height="29.71187mm"
   viewBox="0 0 32.854954 29.71187"
   version="1.1"
   id="svg1221"
   inkscape:version="0.92.2 (5c3e80d, 2017-08-06)"
   sodipodi:docname="startbtn_w.svg">
  <defs
     id="defs1215">
    <clipPath
       id="clipPath1788"
       clipPathUnits="userSpaceOnUse">
      <path
         inkscape:connector-curvature="0"
         id="path1786"
         d="M 0,800 H 800 V 0 H 0 Z" />
    </clipPath>
  </defs>
  <sodipodi:namedview
     id="base"
     pagecolor="#ffffff"
     bordercolor="#666666"
     borderopacity="1.0"
     inkscape:pageopacity="0.0"
     inkscape:pageshadow="2"
     inkscape:zoom="1.4"
     inkscape:cx="127.41355"
     inkscape:cy="-91.610184"
     inkscape:document-units="mm"
     inkscape:current-layer="g1774"
     showgrid="false"
     fit-margin-top="0"
     fit-margin-left="0"
     fit-margin-right="0"
     fit-margin-bottom="0"
     inkscape:window-width="1920"
     inkscape:window-height="1018"
     inkscape:window-x="1272"
     inkscape:window-y="-8"
     inkscape:window-maximized="1" />
  <metadata
     id="metadata1218">
    <rdf:RDF>
      <cc:Work
         rdf:about="">
        <dc:format>image/svg+xml</dc:format>
        <dc:type
           rdf:resource="http://purl.org/dc/dcmitype/StillImage" />
        <dc:title></dc:title>
      </cc:Work>
    </rdf:RDF>
  </metadata>
  <g
     inkscape:label="Ebene 1"
     inkscape:groupmode="layer"
     id="layer1"
     transform="translate(-5.8585284,-5.3511628)">
    <g
       transform="matrix(0.16449964,0,0,-0.16449964,-12.971784,123.82914)"
       inkscape:label="167"
       id="g1774">
      <text
         xml:space="preserve"
         style="font-style:normal;font-variant:normal;font-weight:normal;font-stretch:normal;font-size:62.27609253px;line-height:1.25;font-family:'SP Marker Font';-inkscape-font-specification:'SP Marker Font';letter-spacing:0px;word-spacing:0px;fill:#ffffff;fill-opacity:1;stroke:none;stroke-width:0.98997366;"
         x="314.95895"
         y="-471.70544"
         id="text2304"
         transform="matrix(0.85578651,0.19750714,0.25604402,-1.1094233,0,0)"><tspan
           sodipodi:role="line"
           id="tspan2302"
           x="314.95895"
           y="-471.70544"
           style="font-style:normal;font-variant:normal;font-weight:normal;font-stretch:normal;font-size:62.27609253px;font-family:'SP Marker Font';-inkscape-font-specification:'SP Marker Font';stroke-width:0.98997366;fill:#ffffff;">Start</tspan></text>
      <g
         id="g1782"
         transform="matrix(0.92547114,0,0,0.90762955,15.974035,56.100747)"
         style="fill:#ffffff">
        <g
           clip-path="url(#clipPath1788)"
           id="g1784"
           style="fill:#ffffff">
          <g
             transform="translate(320.02817,626.45537)"
             id="g1794"
             style="fill:#ffffff">
            <path
               inkscape:connector-curvature="0"
               id="path1796"
               style="fill:#ffffff;fill-opacity:1;fill-rule:nonzero;stroke:none"
               d="m 0,0 c -1.014,10.301 -1.941,20.278 -4.803,30.287 -1.429,5.001 -3.189,9.946 -5.486,14.619 -2.263,4.603 -5.323,8.523 -8.34,12.633 -1.336,1.82 -2.678,3.641 -4.234,5.281 -1.627,1.716 -3.555,3.024 -5.093,4.826 -3.392,3.974 -7.706,7.154 -11.667,10.55 -7.992,6.851 -17.845,10.384 -27.558,14.022 -5.146,1.928 -10.154,3.641 -15.466,5.067 -5.438,1.46 -10.485,3.72 -16.072,4.691 -10.581,1.84 -21.298,0.465 -31.812,-1.476 -10.582,-1.955 -20.56,-5.954 -29.903,-11.22 -4.776,-2.691 -8.787,-5.831 -13.037,-9.312 -2.009,-1.647 -4.087,-3.141 -6.166,-4.691 -1.907,-1.421 -3.253,-3.148 -4.826,-4.915 -3.337,-3.745 -5.635,-7.694 -8.42,-11.813 -2.869,-4.242 -5.482,-8.235 -7.301,-13.063 -3.944,-10.465 -5.831,-21.007 -6.783,-32.101 -0.466,-5.433 -1.195,-10.829 -2.093,-16.203 -0.884,-5.296 -1.729,-10.479 -1.277,-15.867 0.464,-5.543 1.827,-10.929 3.491,-16.221 1.47,-4.676 2.734,-9.617 5.677,-13.617 2.987,-4.061 6.836,-7.363 10.682,-10.579 4.259,-3.562 8.443,-7.246 13.001,-10.428 8.799,-6.142 18.778,-9.862 28.476,-14.289 9.444,-4.312 19.809,-6.909 30.242,-7.33 5.31,-0.214 10.622,-0.332 15.931,-0.57 2.671,-0.119 5.338,0.182 7.999,0.392 2.709,0.213 5.35,-0.057 8.033,0.339 10.76,1.587 21.205,3.859 31.431,7.646 4.726,1.751 8.789,4.759 13.182,7.173 4.308,2.367 8.008,5.574 11.502,9.001 3.379,3.316 6.979,6.599 10.023,10.227 3.19,3.801 5.704,8.116 7.947,12.528 4.695,9.229 8.744,18.976 10.422,29.247 C -1.474,-10.122 -0.769,-5.054 0,0 m -213.6,-13.789 c 0.778,5.615 1.473,11.245 2.35,16.847 0.901,5.761 2.265,11.458 2.868,17.265 0.603,5.798 1.508,11.297 3.043,16.934 1.413,5.193 2.586,10.341 5.273,15.056 2.563,4.497 5.6,8.73 8.226,13.196 2.264,3.85 5.966,8.168 9.527,10.854 3.674,2.774 6.992,5.906 10.973,8.203 1.875,1.082 3.289,2.815 5.075,4.088 2.052,1.464 4.3,2.626 6.581,3.685 9.831,4.565 20.218,9.762 31.056,11.145 11.228,1.433 22.917,3.16 33.993,0.011 5.299,-1.507 10.424,-3.554 15.733,-5.07 4.946,-1.413 9.994,-3.007 14.762,-4.946 2.305,-0.936 4.333,-2.427 6.599,-3.362 2.274,-0.937 4.651,-1.561 6.9,-2.619 4.559,-2.144 8.731,-4.942 12.558,-8.211 4.347,-3.715 9.087,-7.295 12.746,-11.694 1.344,-1.616 3.036,-2.594 4.533,-4.038 1.74,-1.68 3.011,-3.76 4.346,-5.756 2.885,-4.312 6.143,-8.315 8.495,-12.967 2.459,-4.863 3.701,-10.109 5.218,-15.311 1.598,-5.484 3.177,-10.788 3.818,-16.477 0.615,-5.47 1.581,-11.235 0.91,-16.731 -1.368,-11.21 -4.021,-21.625 -7.969,-32.184 -1.904,-5.09 -4.574,-9.56 -7.696,-13.99 -2.994,-4.249 -5.695,-8.736 -9.43,-12.386 -3.422,-3.345 -6.846,-6.793 -10.35,-10.039 -3.675,-3.404 -8.094,-5.838 -12.318,-8.476 -4.514,-2.818 -8.935,-5.325 -13.991,-7.057 -5.413,-1.856 -11.005,-3.136 -16.635,-4.126 -5.561,-0.978 -11.121,-0.894 -16.719,-1.435 -5.406,-0.523 -10.508,-0.368 -15.918,-0.173 -5.528,0.199 -11.683,-0.339 -17.038,1.111 -2.512,0.679 -4.762,0.704 -7.316,0.829 -2.662,0.132 -5.478,1.649 -7.968,2.562 -10.346,3.795 -20.681,7.874 -30.206,13.469 -9.21,5.41 -17.225,12.192 -24.967,19.496 -3.7,3.491 -7.295,7.273 -9.376,11.98 -2.122,4.798 -3.768,10.076 -4.873,15.198 -0.591,2.745 -1.048,5.517 -1.568,8.277 -0.141,0.75 -1.007,6.801 -1.245,6.842" />
          </g>
          <g
             transform="translate(222.82117,548.88117)"
             id="g1798"
             style="fill:#ffffff">
            <path
               inkscape:connector-curvature="0"
               id="path1800"
               style="fill:#ffffff;fill-opacity:1;fill-rule:nonzero;stroke:none"
               d="m 0,0 c 9.222,0.605 18.864,2.406 27.674,5.268 4.393,1.426 8.569,3.313 12.586,5.586 3.721,2.105 7.722,3.621 11.175,6.185 7.01,5.208 12.731,12.368 17.599,19.55 2.514,3.709 4.958,7.55 7.113,11.479 2.255,4.111 3.362,8.726 4.441,13.258 2.244,9.425 3.409,18.962 2.742,28.672 -0.609,8.864 -3.809,17.855 -7.225,25.996 -3.386,8.074 -8.104,15.173 -14.489,21.188 -6.704,6.317 -14.49,10.957 -21.946,16.263 -7.149,5.09 -15.084,7.653 -23.496,9.774 -9.164,2.311 -17.988,4.619 -27.526,4.476 -4.565,-0.068 -9.122,-0.356 -13.679,-0.595 -4.719,-0.247 -9.114,-2.286 -13.494,-3.937 -4.131,-1.557 -8.724,-2.773 -12.61,-4.874 -4.113,-2.223 -8.066,-5.004 -11.838,-7.756 -15.162,-11.062 -25.706,-26.597 -30.828,-44.635 -2.542,-8.951 -5.369,-18.456 -5.041,-27.841 0.326,-9.333 0.003,-19.222 2.154,-28.359 0.987,-4.192 3.003,-8.258 4.874,-12.123 1.682,-3.477 3.851,-6.711 6.493,-9.534 5.857,-6.261 13.669,-10.8 21.377,-14.339 2.058,-0.945 4.129,-1.863 6.197,-2.786 1.803,-0.805 4.142,-1.437 5.758,-2.557 1.477,-1.023 2.212,-1.762 4.003,-2.33 2.119,-0.672 4.228,-1.417 6.335,-2.133 4.327,-1.469 8.642,-2.916 13.195,-3.509 4.621,-0.603 9.376,-0.503 14.028,-0.493 C -9.619,-0.097 -4.81,0 0,0 m -102.706,67.363 c 0,5.274 -0.285,10.552 0.004,15.824 0.276,5.022 1.402,9.878 2.624,14.742 2.358,9.384 4.785,18.787 9.28,27.416 4.1,7.873 9.52,15.279 15.821,21.536 6.463,6.417 14.521,11.35 22.629,15.423 8.835,4.437 18.675,6.107 27.736,9.883 1.713,0.715 3.342,1.518 5.261,1.25 2.08,-0.29 3.965,-1.036 6.159,-1.096 4.833,-0.134 9.799,-0.321 14.526,-1.403 9.322,-2.133 19.055,-4.051 27.992,-7.503 4.09,-1.581 7.982,-3.674 11.513,-6.276 3.967,-2.923 8.117,-5.548 12.145,-8.388 4.045,-2.854 8.289,-5.627 12.016,-8.898 3.162,-2.774 5.845,-6.539 8.472,-9.82 5.68,-7.096 9.125,-16.156 12.009,-24.709 C 88.528,96.308 90.24,86.038 89.103,76.529 88.497,71.46 87.39,66.456 86.501,61.432 85.661,56.68 85.298,51.302 82.911,47.028 78.283,38.746 72.587,30.285 66.092,23.353 59.647,16.476 51.516,10.993 43.145,6.729 24.836,-2.595 3.806,-4.429 -16.391,-3.874 c -4.86,0.134 -9.829,0.106 -14.609,1.111 -4.1,0.862 -7.894,2.743 -11.853,4.023 -4.374,1.413 -8.939,2.593 -13.24,4.182 -4.585,1.694 -8.859,4.606 -13.205,6.838 -7.888,4.053 -15.868,9.229 -21.265,16.382 -5.628,7.459 -9.222,16.288 -11.292,25.36 -0.48,2.105 -0.422,4.208 -0.427,6.357 -0.003,1.253 -0.001,2.507 0.002,3.76 0.001,0.804 0.41,3.221 -0.426,3.224" />
          </g>
        </g>
      </g>
    </g>
  </g>
</svg>
